# xmcd CD database file
#
# Track frame offsets:
#	150
#	15496
#	29306
#	46541
#	63862
#	76710
#	91230
#	107105
#	121100
#	137118
#	148794
#	165792
#
# Disc length: 2478 seconds
#
# Revision: 0
# Processed by: cddbd v1.5.1PL2 Copyright (c) Steve Scherf et al.
# Submitted via: CDex 1.51
#
DISCID=8309ac0c
DTITLE=George Jones  - The Rock
DYEAR=2001
DGENRE=Country
TTITLE0=The Rock
TTITLE1=Beer Run
TTITLE2=Wood and Wire
TTITLE3=50,000 Names
TTITLE4=The Man He Was
TTITLE5=I Got Everything
TTITLE6=Half Over You
TTITLE7=I am
TTITLE8=Honey Hush
TTITLE9=Around Here
TTITLE10=What I Didn'nt Do
TTITLE11=Tramp on Your Street
EXTD=YEAR: 2001
EXTT0=
EXTT1=
EXTT2=
EXTT3=
EXTT4=
EXTT5=
EXTT6=
EXTT7=
EXTT8=
EXTT9=
EXTT10=
EXTT11=
PLAYORDER=
